<?xml version="1.0" encoding="UTF-8" standalone="no"?>
<!DOCTYPE svg PUBLIC "-//W3C//DTD SVG 1.1//EN"
 "http://www.w3.org/Graphics/SVG/1.1/DTD/svg11.dtd">
<!-- Generated by graphviz version 2.26.3 (20100126.1600)
 -->
<!-- Title: models_diagram Pages: 1 -->
<svg width="486pt" height="342pt"
 viewBox="0.00 0.00 486.00 342.00" xmlns="http://www.w3.org/2000/svg" xmlns:xlink="http://www.w3.org/1999/xlink">
<g id="graph1" class="graph" transform="scale(1 1) rotate(0) translate(4 338)">
<title>models_diagram</title>
<polygon fill="white" stroke="white" points="-4,5 -4,-338 483,-338 483,5 -4,5"/>
<!-- Screen -->
<g id="node1" class="node"><title>Screen</title>
<ellipse fill="none" stroke="black" cx="181" cy="-93" rx="44.7575" ry="18.3848"/>
<text text-anchor="middle" x="181" y="-89.4" font-family="Times Roman,serif" font-size="14.00">Screen</text>
</g>
<!-- Seat -->
<g id="node5" class="node"><title>Seat</title>
<ellipse fill="none" stroke="black" cx="145" cy="-19" rx="33.9411" ry="18.3848"/>
<text text-anchor="middle" x="145" y="-15.4" font-family="Times Roman,serif" font-size="14.00">Seat</text>
</g>
<!-- Screen&#45;&gt;Seat -->
<g id="edge2" class="edge"><title>Screen&#45;&gt;Seat</title>
<path fill="none" stroke="#290d60" d="M168.531,-67.3701C165.194,-60.5096 161.575,-53.0715 158.2,-46.1328"/>
<ellipse fill="none" stroke="#290d60" cx="170.351" cy="-71.1109" rx="4.00002" ry="4.00002"/>
<polygon fill="#290d60" stroke="#290d60" points="158.171,-46.0741 157.843,-35.1131 155.984,-41.5779 153.797,-37.0817 153.797,-37.0817 153.797,-37.0817 155.984,-41.5779 149.75,-39.0503 158.171,-46.0741 158.171,-46.0741"/>
</g>
<!-- User -->
<g id="node2" class="node"><title>User</title>
<ellipse fill="none" stroke="black" cx="395" cy="-167" rx="33.9411" ry="18.3848"/>
<text text-anchor="middle" x="395" y="-163.4" font-family="Times Roman,serif" font-size="14.00">User</text>
</g>
<!-- Show -->
<g id="node3" class="node"><title>Show</title>
<ellipse fill="none" stroke="black" cx="217" cy="-241" rx="39.0967" ry="18.3848"/>
<text text-anchor="middle" x="217" y="-237.4" font-family="Times Roman,serif" font-size="14.00">Show</text>
</g>
<!-- Reservation -->
<g id="node7" class="node"><title>Reservation</title>
<ellipse fill="none" stroke="black" cx="108" cy="-167" rx="68.7979" ry="18.3848"/>
<text text-anchor="middle" x="108" y="-163.4" font-family="Times Roman,serif" font-size="14.00">Reservation</text>
</g>
<!-- Show&#45;&gt;Reservation -->
<g id="edge4" class="edge"><title>Show&#45;&gt;Reservation</title>
<path fill="none" stroke="#ce5e2a" d="M187.474,-220.955C173.402,-211.401 156.495,-199.923 141.899,-190.014"/>
<ellipse fill="none" stroke="#ce5e2a" cx="191.106" cy="-223.42" rx="4.00002" ry="4.00002"/>
<polygon fill="#ce5e2a" stroke="#ce5e2a" points="141.885,-190.005 136.139,-180.665 137.748,-187.196 133.612,-184.388 133.612,-184.388 133.612,-184.388 137.748,-187.196 131.084,-188.111 141.885,-190.005 141.885,-190.005"/>
</g>
<!-- Cinema -->
<g id="node11" class="node"><title>Cinema</title>
<ellipse fill="none" stroke="black" cx="293" cy="-167" rx="48.0833" ry="18.3848"/>
<text text-anchor="middle" x="293" y="-163.4" font-family="Times Roman,serif" font-size="14.00">Cinema</text>
</g>
<!-- Show&#45;&gt;Cinema -->
<g id="edge6" class="edge"><title>Show&#45;&gt;Cinema</title>
<path fill="none" stroke="#8fcd9b" d="M241.528,-217.118C250.033,-208.837 259.572,-199.549 268.106,-191.239"/>
<polygon fill="#8fcd9b" stroke="#8fcd9b" points="241.41,-217.232 231.106,-220.984 237.828,-220.72 234.246,-224.208 234.246,-224.208 234.246,-224.208 237.828,-220.72 237.385,-227.432 241.41,-217.232 241.41,-217.232"/>
<polygon fill="#8fcd9b" stroke="#8fcd9b" points="268.131,-191.215 278.435,-187.463 271.713,-187.727 275.295,-184.239 275.295,-184.239 275.295,-184.239 271.713,-187.727 272.156,-181.015 268.131,-191.215 268.131,-191.215"/>
</g>
<!-- Ticket -->
<g id="node4" class="node"><title>Ticket</title>
<ellipse fill="none" stroke="black" cx="40" cy="-93" rx="39.8075" ry="18.3848"/>
<text text-anchor="middle" x="40" y="-89.4" font-family="Times Roman,serif" font-size="14.00">Ticket</text>
</g>
<!-- ShowType -->
<g id="node6" class="node"><title>ShowType</title>
<ellipse fill="none" stroke="black" cx="305" cy="-93" rx="61.0181" ry="18.3848"/>
<text text-anchor="middle" x="305" y="-89.4" font-family="Times Roman,serif" font-size="14.00">ShowType</text>
</g>
<!-- ShowType&#45;&gt;Show -->
<g id="edge8" class="edge"><title>ShowType&#45;&gt;Show</title>
<path fill="none" stroke="#df9aed" d="M269.332,-114.053C257.007,-123.028 244.238,-134.554 236,-148 224.16,-167.326 219.558,-192.728 217.834,-212.1"/>
<ellipse fill="none" stroke="#df9aed" cx="272.82" cy="-111.621" rx="4.00002" ry="4.00002"/>
<polygon fill="#df9aed" stroke="#df9aed" points="217.828,-212.189 212.655,-221.858 217.486,-217.177 217.145,-222.165 217.145,-222.165 217.145,-222.165 217.486,-217.177 221.634,-222.473 217.828,-212.189 217.828,-212.189"/>
</g>
<!-- TicketType -->
<g id="node10" class="node"><title>TicketType</title>
<ellipse fill="none" stroke="black" cx="305" cy="-19" rx="62.9325" ry="18.3848"/>
<text text-anchor="middle" x="305" y="-15.4" font-family="Times Roman,serif" font-size="14.00">TicketType</text>
</g>
<!-- ShowType&#45;&gt;TicketType -->
<g id="edge10" class="edge"><title>ShowType&#45;&gt;TicketType</title>
<path fill="none" stroke="#ddc036" d="M305,-66.309C305,-60.3769 305,-54.0606 305,-48.0396"/>
<ellipse fill="none" stroke="#ddc036" cx="305" cy="-70.3267" rx="4" ry="4"/>
<polygon fill="#ddc036" stroke="#ddc036" points="305,-47.6674 309.5,-37.6673 305,-42.6674 305,-37.6674 305,-37.6674 305,-37.6674 305,-42.6674 300.5,-37.6674 305,-47.6674 305,-47.6674"/>
</g>
<!-- Reservation&#45;&gt;Ticket -->
<g id="edge12" class="edge"><title>Reservation&#45;&gt;Ticket</title>
<path fill="none" stroke="#967383" d="M85.6212,-142.647C78.2739,-134.651 70.1037,-125.76 62.7306,-117.736"/>
<ellipse fill="none" stroke="#967383" cx="88.4845" cy="-145.763" rx="4.00002" ry="4.00002"/>
<polygon fill="#967383" stroke="#967383" points="62.4496,-117.43 58.9968,-107.022 59.0664,-113.749 55.6833,-110.067 55.6833,-110.067 55.6833,-110.067 59.0664,-113.749 52.3698,-113.112 62.4496,-117.43 62.4496,-117.43"/>
</g>
<!-- Reservation&#45;&gt;Seat -->
<g id="edge14" class="edge"><title>Reservation&#45;&gt;Seat</title>
<path fill="none" stroke="#01afa8" d="M112.952,-138.466C116.378,-119.964 121.331,-95.4061 127,-74 129.366,-65.0649 132.357,-55.4486 135.217,-46.7947"/>
<polygon fill="#01afa8" stroke="#01afa8" points="112.948,-138.487 106.736,-147.524 112.056,-143.407 111.164,-148.327 111.164,-148.327 111.164,-148.327 112.056,-143.407 115.592,-149.13 112.948,-138.487 112.948,-138.487"/>
<polygon fill="#01afa8" stroke="#01afa8" points="135.266,-46.6494 142.732,-38.6179 136.868,-41.9129 138.469,-37.1764 138.469,-37.1764 138.469,-37.1764 136.868,-41.9129 134.207,-35.7348 135.266,-46.6494 135.266,-46.6494"/>
</g>
<!-- OrganiserData -->
<g id="node8" class="node"><title>OrganiserData</title>
<ellipse fill="none" stroke="black" cx="395" cy="-241" rx="82.939" ry="18.3848"/>
<text text-anchor="middle" x="395" y="-237.4" font-family="Times Roman,serif" font-size="14.00">OrganiserData</text>
</g>
<!-- OrganiserData&#45;&gt;User -->
<g id="edge16" class="edge"><title>OrganiserData&#45;&gt;User</title>
<path fill="none" stroke="#ba96d2" d="M395,-214.309C395,-208.377 395,-202.061 395,-196.04"/>
<ellipse fill="none" stroke="#ba96d2" cx="395" cy="-218.327" rx="4" ry="4"/>
<polygon fill="#ba96d2" stroke="#ba96d2" points="395,-195.667 399.5,-185.667 395,-190.667 395,-185.667 395,-185.667 395,-185.667 395,-190.667 390.5,-185.667 395,-195.667 395,-195.667"/>
</g>
<!-- OrganiserData&#45;&gt;Cinema -->
<g id="edge18" class="edge"><title>OrganiserData&#45;&gt;Cinema</title>
<path fill="none" stroke="#5e1cf1" d="M363.695,-218.289C351.141,-209.181 336.707,-198.709 324.167,-189.611"/>
<ellipse fill="none" stroke="#5e1cf1" cx="367.331" cy="-220.926" rx="4.00002" ry="4.00002"/>
<polygon fill="#5e1cf1" stroke="#5e1cf1" points="323.928,-189.438 318.477,-179.924 319.881,-186.502 315.834,-183.566 315.834,-183.566 315.834,-183.566 319.881,-186.502 313.192,-187.208 323.928,-189.438 323.928,-189.438"/>
</g>
<!-- Movie -->
<g id="node9" class="node"><title>Movie</title>
<ellipse fill="none" stroke="black" cx="250" cy="-315" rx="39.8075" ry="18.3848"/>
<text text-anchor="middle" x="250" y="-311.4" font-family="Times Roman,serif" font-size="14.00">Movie</text>
</g>
<!-- Movie&#45;&gt;Show -->
<g id="edge20" class="edge"><title>Movie&#45;&gt;Show</title>
<path fill="none" stroke="#f29474" d="M238.466,-289.136C235.522,-282.534 232.345,-275.41 229.362,-268.72"/>
<ellipse fill="none" stroke="#f29474" cx="240.214" cy="-293.055" rx="4.00002" ry="4.00002"/>
<polygon fill="#f29474" stroke="#f29474" points="229.251,-268.471 229.288,-257.505 227.214,-263.905 225.178,-259.338 225.178,-259.338 225.178,-259.338 227.214,-263.905 221.068,-261.171 229.251,-268.471 229.251,-268.471"/>
</g>
<!-- Movie&#45;&gt;Cinema -->
<g id="edge22" class="edge"><title>Movie&#45;&gt;Cinema</title>
<path fill="none" stroke="#52cce6" d="M258.198,-286.785C265.816,-260.565 277.105,-221.71 284.742,-195.423"/>
<polygon fill="#52cce6" stroke="#52cce6" points="258.149,-286.952 251.038,-295.299 256.754,-291.753 255.359,-296.555 255.359,-296.555 255.359,-296.555 256.754,-291.753 259.68,-297.81 258.149,-286.952 258.149,-286.952"/>
<polygon fill="#52cce6" stroke="#52cce6" points="284.783,-195.28 291.895,-186.933 286.178,-190.479 287.573,-185.678 287.573,-185.678 287.573,-185.678 286.178,-190.479 283.252,-184.422 284.783,-195.28 284.783,-195.28"/>
</g>
<!-- Cinema&#45;&gt;Screen -->
<g id="edge24" class="edge"><title>Cinema&#45;&gt;Screen</title>
<path fill="none" stroke="#e6eb75" d="M261.775,-146.369C246.719,-136.421 228.67,-124.496 213.456,-114.444"/>
<ellipse fill="none" stroke="#e6eb75" cx="265.36" cy="-148.738" rx="4.00002" ry="4.00002"/>
<polygon fill="#e6eb75" stroke="#e6eb75" points="213.214,-114.284 207.351,-105.017 209.042,-111.528 204.87,-108.771 204.87,-108.771 204.87,-108.771 209.042,-111.528 202.389,-112.526 213.214,-114.284 213.214,-114.284"/>
</g>
<!-- Cinema&#45;&gt;ShowType -->
<g id="edge26" class="edge"><title>Cinema&#45;&gt;ShowType</title>
<path fill="none" stroke="#0f2416" d="M297.328,-140.309C298.314,-134.229 299.366,-127.745 300.364,-121.589"/>
<ellipse fill="none" stroke="#0f2416" cx="296.668" cy="-144.378" rx="4.00001" ry="4.00001"/>
<polygon fill="#0f2416" stroke="#0f2416" points="300.372,-121.538 306.415,-112.388 301.172,-116.603 301.973,-111.667 301.973,-111.667 301.973,-111.667 301.172,-116.603 297.531,-110.947 300.372,-121.538 300.372,-121.538"/>
</g>
</g>
</svg>
